<svg width="24" height="24" viewBox="0 0 24 24" fill="none" xmlns="http://www.w3.org/2000/svg">
<g clip-path="url(#clip0_0_8832)">
<path d="M5.373 4.51001C7.1997 2.88939 9.55803 1.99616 12 2.00001C17.523 2.00001 22 6.47701 22 12C22.0033 14.0439 21.3772 16.0393 20.207 17.715L17.5 12H20C20 10.4094 19.5259 8.85482 18.6381 7.53496C17.7504 6.2151 16.4893 5.18985 15.016 4.59017C13.5428 3.99049 11.9242 3.84362 10.367 4.16831C8.80985 4.493 7.38484 5.27451 6.274 6.41301L5.374 4.51101L5.373 4.51001ZM18.627 19.49C16.8003 21.1106 14.442 22.0039 12 22C6.477 22 2 17.523 2 12C2 9.87501 2.663 7.90501 3.793 6.28501L6.5 12H4C3.99997 13.5907 4.47412 15.1452 5.36188 16.4651C6.24964 17.7849 7.5107 18.8102 8.98397 19.4099C10.4572 20.0095 12.0758 20.1564 13.633 19.8317C15.1901 19.507 16.6152 18.7255 17.726 17.587L18.626 19.489L18.627 19.49ZM8.5 14H14C14.1326 14 14.2598 13.9473 14.3536 13.8536C14.4473 13.7598 14.5 13.6326 14.5 13.5C14.5 13.3674 14.4473 13.2402 14.3536 13.1465C14.2598 13.0527 14.1326 13 14 13H10C9.33696 13 8.70107 12.7366 8.23223 12.2678C7.76339 11.7989 7.5 11.1631 7.5 10.5C7.5 9.83697 7.76339 9.20109 8.23223 8.73225C8.70107 8.2634 9.33696 8.00001 10 8.00001H11V7.00001H13V8.00001H15.5V10H10C9.86739 10 9.74021 10.0527 9.64645 10.1465C9.55268 10.2402 9.5 10.3674 9.5 10.5C9.5 10.6326 9.55268 10.7598 9.64645 10.8536C9.74021 10.9473 9.86739 11 10 11H14C14.663 11 15.2989 11.2634 15.7678 11.7322C16.2366 12.2011 16.5 12.837 16.5 13.5C16.5 14.1631 16.2366 14.7989 15.7678 15.2678C15.2989 15.7366 14.663 16 14 16H13V17H11V16H8.5V14Z" fill="#C2CFE0"/>
</g>
<defs>
<clipPath id="clip0_0_8832">
<rect width="24" height="24" fill="white"/>
</clipPath>
</defs>
</svg>
