<svg width="22" height="22" viewBox="0 0 22 22" fill="none" xmlns="http://www.w3.org/2000/svg">
<g clip-path="url(#clip0_0_18016)">
<path d="M4.58366 19.2503C4.35914 19.2503 4.14243 19.1678 3.97465 19.0186C3.80687 18.8694 3.69968 18.6639 3.67341 18.4409L3.66699 18.3336V10.0836H0.916992L10.3834 1.47796C10.5372 1.33798 10.7341 1.25447 10.9416 1.24114C11.1492 1.22782 11.3551 1.28547 11.5256 1.40463L11.6172 1.47796L21.0837 10.0836H18.3337V18.3336C18.3336 18.5582 18.2512 18.7749 18.102 18.9426C17.9528 19.1104 17.7472 19.2176 17.5242 19.2439L17.417 19.2503H4.58366ZM11.0003 3.3938L5.50033 8.3933V17.417H9.49424L10.7712 16.042L7.33366 12.8336L11.917 10.0836L9.62533 8.2503L12.3753 5.5003L11.917 8.2503L14.2087 10.0836L10.542 12.8336L13.7503 15.5836L12.6045 17.417H16.5003V8.39421L11.0003 3.3938Z" fill="#29A0DC"/>
</g>
<defs>
<clipPath id="clip0_0_18016">
<rect width="22" height="22" fill="white"/>
</clipPath>
</defs>
</svg>
