<svg width="120" height="50" viewBox="0 0 120 121" fill="none" xmlns="http://www.w3.org/2000/svg">
<path d="M52.7585 50.8665C50.836 48.9389 49.7563 46.3276 49.7563 43.6052C49.7563 40.8828 50.836 38.2715 52.7585 36.3439L69.3858 19.7176C70.3307 18.7255 71.4645 17.9325 72.7205 17.3851C73.9765 16.8378 75.3293 16.5472 76.6993 16.5305C78.0693 16.5138 79.4288 16.7713 80.6978 17.2878C81.9668 17.8044 83.1196 18.5696 84.0884 19.5383C85.0572 20.5071 85.8224 21.6598 86.339 22.9288C86.8556 24.1977 87.1131 25.5571 87.0964 26.927C87.0797 28.2969 86.7891 29.6497 86.2417 30.9056C85.6944 32.1615 84.9013 33.2953 83.9091 34.2401L67.2819 50.8665C65.3542 52.7889 62.7427 53.8685 60.0202 53.8685C57.2977 53.8685 54.6862 52.7889 52.7585 50.8665Z" fill="#29a0dc"/>
<path d="M36.0456 34.1543C34.1231 32.2267 33.0435 29.6154 33.0435 26.893C33.0435 24.1706 34.1231 21.5593 36.0456 19.6317L52.6729 3.00541C53.6178 2.01333 54.7516 1.22027 56.0076 0.672925C57.2636 0.125579 58.6164 -0.164997 59.9864 -0.181701C61.3564 -0.198405 62.7159 0.0591011 63.9849 0.57566C65.2539 1.09222 66.4067 1.85739 67.3755 2.82615C68.3443 3.7949 69.1095 4.94766 69.6261 6.21657C70.1427 7.48548 70.4002 8.8449 70.3835 10.2148C70.3668 11.5847 70.0762 12.9375 69.5288 14.1934C68.9815 15.4494 68.1884 16.5831 67.1962 17.528L50.569 34.1543C48.6413 36.0767 46.0299 37.1563 43.3073 37.1563C40.5848 37.1563 37.9733 36.0767 36.0456 34.1543V34.1543Z" fill="#29a0dc"/>
<path d="M52.5976 116.996C51.6434 116.044 50.8863 114.913 50.3698 113.668C49.8533 112.423 49.5874 111.088 49.5874 109.74C49.5874 108.392 49.8533 107.058 50.3698 105.812C50.8863 104.567 51.6434 103.436 52.5976 102.484L69.2248 85.8043C70.1681 84.8097 71.3011 84.0142 72.5569 83.4647C73.8128 82.9152 75.166 82.6228 76.5367 82.6049C77.9074 82.587 79.2678 82.8439 80.5376 83.3604C81.8073 83.8769 82.9607 84.6426 83.9297 85.6122C84.8986 86.5818 85.6635 87.7357 86.1791 89.0058C86.6947 90.2759 86.9506 91.6364 86.9317 93.007C86.9127 94.3776 86.6194 95.7305 86.0689 96.9859C85.5185 98.2413 84.722 99.3736 83.7267 100.316L67.1102 116.996C66.158 117.95 65.0269 118.707 63.7818 119.224C62.5367 119.74 61.2019 120.006 59.8539 120.006C58.5058 120.006 57.1711 119.74 55.9259 119.224C54.6808 118.707 53.5497 117.95 52.5976 116.996V116.996Z" fill="#29a0dc"/>
<path d="M35.9701 100.316C35.0159 99.364 34.2589 98.233 33.7424 96.9879C33.2258 95.7429 32.96 94.4082 32.96 93.0602C32.96 91.7123 33.2258 90.3775 33.7424 89.1325C34.2589 87.8874 35.0159 86.7564 35.9701 85.8043L52.5974 69.178C54.5261 67.2536 57.1404 66.1742 59.865 66.1772C62.5897 66.1802 65.2016 67.2654 67.1261 69.1941C69.0506 71.1227 70.13 73.7368 70.127 76.4614C70.124 79.1859 69.0387 81.7976 67.11 83.722L50.4505 100.316C48.5288 102.233 45.925 103.31 43.2103 103.31C40.4957 103.31 37.8919 102.233 35.9701 100.316V100.316Z" fill="#29a0dc"/>
<path d="M3.0056 52.8415C4.93331 50.919 7.54474 49.8394 10.2673 49.8394C12.9898 49.8394 15.6012 50.919 17.5289 52.8415L34.1562 69.4678C36.0052 71.4092 37.0219 73.9965 36.9892 76.6772C36.9566 79.358 35.8771 81.9197 33.9812 83.8154C32.0854 85.7111 29.5235 86.7906 26.8427 86.8232C24.1618 86.8559 21.5743 85.8393 19.6328 83.9903L3.0056 67.364C1.08306 65.4364 0.00341797 62.8251 0.00341797 60.1027C0.00341797 57.3803 1.08306 54.7691 3.0056 52.8415V52.8415Z" fill="#29a0dc"/>
<path d="M19.5471 36.1292C21.4748 34.2068 24.0862 33.1272 26.8088 33.1272C29.5313 33.1272 32.1427 34.2068 34.0705 36.1292L50.6977 52.7556C52.5467 54.697 53.5634 57.2842 53.5308 59.965C53.4981 62.6457 52.4186 65.2075 50.5227 67.1032C48.6269 68.9989 46.065 70.0783 43.3842 70.111C40.7033 70.1437 38.1158 69.1271 36.1743 67.2781L19.5471 50.6518C17.6246 48.7242 16.5449 46.1129 16.5449 43.3905C16.5449 40.6681 17.6246 38.0568 19.5471 36.1292V36.1292Z" fill="#29a0dc"/>
<path d="M116.863 67.1923C115.911 68.1464 114.78 68.9034 113.535 69.4199C112.29 69.9364 110.955 70.2023 109.607 70.2023C108.259 70.2023 106.924 69.9364 105.679 69.4199C104.434 68.9034 103.303 68.1464 102.351 67.1923L85.7234 50.566C83.7989 48.6416 82.7178 46.0315 82.7178 43.31C82.7178 40.5886 83.7989 37.9785 85.7234 36.0541C87.6479 34.1298 90.2581 33.0486 92.9797 33.0486C95.7014 33.0486 98.3116 34.1298 100.236 36.0541L116.863 52.6805C117.817 53.6326 118.575 54.7636 119.091 56.0086C119.608 57.2537 119.873 58.5884 119.873 59.9364C119.873 61.2843 119.608 62.619 119.091 63.8641C118.575 65.1092 117.817 66.2401 116.863 67.1923V67.1923Z" fill="#29a0dc"/>
<path d="M100.236 83.8186C99.2837 84.7727 98.1526 85.5297 96.9075 86.0462C95.6624 86.5627 94.3276 86.8286 92.9795 86.8286C91.6315 86.8286 90.2967 86.5627 89.0516 86.0462C87.8065 85.5297 86.6754 84.7727 85.7232 83.8186L69.096 67.1923C68.1431 66.2394 67.3872 65.1082 66.8715 63.8632C66.3558 62.6183 66.0903 61.2839 66.0903 59.9364C66.0903 58.5888 66.3558 57.2545 66.8715 56.0095C67.3872 54.7645 68.1431 53.6333 69.096 52.6805C70.0489 51.7276 71.1802 50.9717 72.4252 50.4561C73.6702 49.9404 75.0047 49.675 76.3523 49.675C77.6999 49.675 79.0343 49.9404 80.2794 50.4561C81.5244 50.9717 82.6557 51.7276 83.6086 52.6805L100.236 69.3068C101.19 70.2589 101.947 71.3899 102.464 72.635C102.98 73.88 103.246 75.2147 103.246 76.5627C103.246 77.9106 102.98 79.2454 102.464 80.4904C101.947 81.7355 101.19 82.8665 100.236 83.8186V83.8186Z" fill="#29a0dc"/>
</svg>
