<svg width="18" height="18" viewBox="0 0 18 18" fill="none" xmlns="http://www.w3.org/2000/svg">
<g clip-path="url(#clip0_0_18033)">
<path d="M7.5 5.25C7.49985 6.29298 7.81035 7.31237 8.39192 8.17816C8.97348 9.04395 9.79975 9.7169 10.7653 10.1112C11.7309 10.5055 12.7921 10.6032 13.8134 10.3919C14.8348 10.1807 15.7701 9.66999 16.5 8.925V9C16.5 13.1423 13.1423 16.5 9 16.5C4.85775 16.5 1.5 13.1423 1.5 9C1.5 4.85775 4.85775 1.5 9 1.5H9.075C8.57553 1.98834 8.17886 2.57172 7.90836 3.21576C7.63786 3.8598 7.49902 4.55146 7.5 5.25ZM3 9C2.99945 10.3387 3.44665 11.6392 4.27042 12.6945C5.09419 13.7497 6.24723 14.4992 7.54606 14.8236C8.84489 15.148 10.2149 15.0287 11.4381 14.4847C12.6614 13.9407 13.6675 13.0033 14.2965 11.8215C13.1771 12.0852 12.0088 12.0586 10.9026 11.744C9.79639 11.4295 8.78888 10.8376 7.97566 10.0243C7.16244 9.21112 6.57048 8.20361 6.25596 7.09738C5.94144 5.99116 5.91477 4.82292 6.1785 3.7035C5.21818 4.2151 4.41509 4.97825 3.85519 5.91123C3.2953 6.84422 2.99968 7.91191 3 9Z" fill="#334D6E"/>
</g>
<defs>
<clipPath id="clip0_0_18033">
<rect width="18" height="18" fill="white"/>
</clipPath>
</defs>
</svg>
