<svg width="18" height="18" viewBox="0 0 18 18" fill="none" xmlns="http://www.w3.org/2000/svg">
<g opacity="0.4" clip-path="url(#clip0_0_22266)">
<path d="M9 16.5C4.85775 16.5 1.5 13.1423 1.5 9C1.5 4.85775 4.85775 1.5 9 1.5C13.1423 1.5 16.5 4.85775 16.5 9C16.5 13.1423 13.1423 16.5 9 16.5ZM9 15C10.5913 15 12.1174 14.3679 13.2426 13.2426C14.3679 12.1174 15 10.5913 15 9C15 7.4087 14.3679 5.88258 13.2426 4.75736C12.1174 3.63214 10.5913 3 9 3C7.4087 3 5.88258 3.63214 4.75736 4.75736C3.63214 5.88258 3 7.4087 3 9C3 10.5913 3.63214 12.1174 4.75736 13.2426C5.88258 14.3679 7.4087 15 9 15ZM6.375 10.5H10.5C10.5995 10.5 10.6948 10.4605 10.7652 10.3902C10.8355 10.3198 10.875 10.2245 10.875 10.125C10.875 10.0255 10.8355 9.93016 10.7652 9.85983C10.6948 9.78951 10.5995 9.75 10.5 9.75H7.5C7.00272 9.75 6.52581 9.55246 6.17417 9.20083C5.82254 8.84919 5.625 8.37228 5.625 7.875C5.625 7.37772 5.82254 6.90081 6.17417 6.54917C6.52581 6.19754 7.00272 6 7.5 6H8.25V4.5H9.75V6H11.625V7.5H7.5C7.40054 7.5 7.30516 7.53951 7.23483 7.60983C7.16451 7.68016 7.125 7.77554 7.125 7.875C7.125 7.97446 7.16451 8.06984 7.23483 8.14017C7.30516 8.21049 7.40054 8.25 7.5 8.25H10.5C10.9973 8.25 11.4742 8.44754 11.8258 8.79917C12.1775 9.15081 12.375 9.62772 12.375 10.125C12.375 10.6223 12.1775 11.0992 11.8258 11.4508C11.4742 11.8025 10.9973 12 10.5 12H9.75V13.5H8.25V12H6.375V10.5Z" fill="#0B132B"/>
</g>
<defs>
<clipPath id="clip0_0_22266">
<rect width="18" height="18" fill="white"/>
</clipPath>
</defs>
</svg>
